<svg viewBox="0 0 467 150" xmlns="http://www.w3.org/2000/svg" xml:space="preserve" style="fill-rule:evenodd;clip-rule:evenodd;stroke-linejoin:round;stroke-miterlimit:2"><path d="M80.94 0C39.576 0 5.993 33.583 5.993 74.947c0 41.365 33.583 74.948 74.947 74.948 41.365 0 74.948-33.583 74.948-74.948C155.888 33.583 122.305 0 80.94 0zm0 13.039c34.169 0 61.909 27.74 61.909 61.908 0 34.169-27.74 61.909-61.909 61.909-34.168 0-61.909-27.74-61.909-61.909 0-34.168 27.741-61.908 61.909-61.908zm31.778 54.974L68.975 43.474a7.95 7.95 0 0 0-11.841 6.935v49.077a7.952 7.952 0 0 0 11.841 6.935l43.743-24.539a7.952 7.952 0 0 0 0-13.869zM70.172 90.799V59.096L98.43 74.947 70.172 90.799z" style="fill:#ff325e"/><text x="184.695" y="111.976" style="font-family:'LeelawadeeUI-Bold','Leelawadee UI',sans-serif;font-weight:700;font-size:101.435px;fill:#ff325e">T<tspan x="239.058px 262.812px 314.451px 359.701px 409.507px" y="111.976px 111.976px 111.976px 111.976px 111.976px">ikTek</tspan></text><path d="M74.947.105C33.583.105 0 33.688 0 75.053 0 116.417 33.583 150 74.947 150c41.365 0 74.948-33.583 74.948-74.947 0-41.365-33.583-74.948-74.948-74.948zm0 13.039c34.169 0 61.909 27.74 61.909 61.909 0 34.168-27.74 61.908-61.909 61.908-34.168 0-61.908-27.74-61.908-61.908 0-34.169 27.74-61.909 61.908-61.909zm31.778 54.974L62.983 43.579a7.952 7.952 0 0 0-11.842 6.935v49.077a7.95 7.95 0 0 0 11.842 6.935l43.742-24.539a7.95 7.95 0 0 0 0-13.869zM64.18 90.904V59.201l28.257 15.852L64.18 90.904z" style="fill:#3bffca"/><text x="178.702" y="112.082" style="font-family:'LeelawadeeUI-Bold','Leelawadee UI',sans-serif;font-weight:700;font-size:101.435px;fill:#3bffca">T<tspan x="233.065px 256.819px 308.458px 353.708px 403.514px" y="112.082px 112.082px 112.082px 112.082px 112.082px">ikTek</tspan></text><g><path d="M77.944 0C36.579 0 2.996 33.583 2.996 74.947c0 41.365 33.583 74.948 74.948 74.948 41.364 0 74.947-33.583 74.947-74.948C152.891 33.583 119.308 0 77.944 0zm0 13.039c34.168 0 61.909 27.74 61.909 61.908 0 34.169-27.741 61.909-61.909 61.909-34.169 0-61.909-27.74-61.909-61.909 0-34.168 27.74-61.908 61.909-61.908zm31.777 54.974L65.979 43.474a7.95 7.95 0 0 0-11.842 6.935v49.077a7.95 7.95 0 0 0 11.842 6.935l43.742-24.539a7.95 7.95 0 0 0 0-13.869zM67.176 90.799V59.096l28.257 15.851-28.257 15.852z" style="fill:#242636"/><text x="181.699" y="111.976" style="font-family:'LeelawadeeUI-Bold','Leelawadee UI',sans-serif;font-weight:700;font-size:101.435px;fill:#242636">T<tspan x="236.062px 259.816px 311.455px 356.704px 406.511px" y="111.976px 111.976px 111.976px 111.976px 111.976px">ikTek</tspan></text></g></svg>